<svg width="154" height="40" viewBox="0 0 154 40" fill="none" xmlns="http://www.w3.org/2000/svg">
<rect width="41" height="40" rx="9" fill="#FF6600"/>
<path d="M12.7855 14.898C13.4771 13.209 14.9743 13.3574 15.7781 14.2438C16.5477 15.0925 15.495 16.3366 15.0742 17.0923C15.7276 17.3181 16.7411 17.7622 17.2735 18.1164C17.9366 18.6389 18.0891 19.4851 17.6183 20.1281C17.2012 20.6976 16.8152 20.9264 15.8666 20.5722C15.318 20.3529 14.431 20.0831 13.8407 19.8879C13.1308 21.3599 12.4598 22.8101 11.8467 24.3062C11.5038 25.1435 10.855 26.3452 10.6433 27.1774C10.4899 27.7519 10.4593 28.3402 10.552 28.9211C10.7846 30.3468 12.2137 31.8892 14.2582 31.6097C16.1196 31.3551 16.533 30.4599 17.0701 29.47C17.6071 28.4802 20.502 28.7626 20.502 28.7626C19.7513 30.891 19.0696 32.7988 16.3133 34.1586C15.3523 34.6325 13.4992 34.7066 12.4148 34.4507C10.8217 34.0757 9.37728 33.0793 8.64698 31.9819C7.44494 30.1766 7.1771 27.8692 7.90138 25.9326C8.20258 25.1269 8.61639 24.3387 8.96162 23.5441C9.69239 21.8732 10.444 20.2069 11.217 18.5462C11.7624 17.3357 12.2855 16.1192 12.7855 14.898Z" fill="black"/>
<path d="M26.5164 17.5019C27.6908 18.9597 26.8158 20.2317 25.6214 20.5152C24.4778 20.7866 23.8818 19.2244 23.4115 18.4721C22.885 18.9475 21.9839 19.6383 21.402 19.9414C20.6041 20.2786 19.7685 19.9966 19.4242 19.2551C19.1193 18.5983 19.105 18.1381 19.8931 17.461C20.3619 17.0765 21.0436 16.4131 21.5114 15.9792C20.5409 14.6123 19.5707 13.2912 18.5306 11.9994C17.9484 11.2766 17.1903 10.0985 16.5477 9.49614C16.1078 9.07385 15.5945 8.75503 15.0267 8.55066C13.6309 8.05378 11.5374 8.5743 10.7756 10.5501C10.0821 12.349 10.6814 13.1637 11.3045 14.1365C11.9275 15.1093 10.2397 17.5711 10.2397 17.5711C8.69976 15.8424 7.3238 14.2852 7.46788 11.1348C7.51841 10.0365 8.36985 8.3344 9.13693 7.48664C10.2631 6.24064 11.8736 5.43593 13.2212 5.32302C15.4383 5.13672 17.6436 6.03861 19.0243 7.64844C19.5988 8.31813 20.1018 9.08029 20.6445 9.78403C21.7834 11.2681 22.9077 12.7687 24.0165 14.2857C24.8336 15.3752 25.6671 16.4478 26.5164 17.5019Z" fill="black"/>
<path d="M17.6324 28.1402C15.7945 28.4963 15.0796 27.1278 15.3878 25.9395C15.6829 24.8018 17.3424 25.0059 18.2274 24.9421C18.0535 24.2544 17.8645 23.1349 17.8689 22.4787C17.9441 21.6158 18.5842 21.0092 19.4006 21.0518C20.1238 21.0896 20.5373 21.2922 20.767 22.3055C20.8875 22.8997 21.1549 23.8126 21.3196 24.4291C22.9817 24.2108 24.6032 23.9713 26.2315 23.6563C27.1427 23.4799 28.5385 23.3611 29.3715 23.0749C29.9506 22.8836 30.4725 22.5791 30.9187 22.1729C32.0109 21.1717 32.5302 19.0779 31.1403 17.4803C29.8749 16.0258 28.8744 16.1744 27.7231 16.2699C26.5719 16.3655 25.1857 13.7222 25.1857 13.7222C27.4339 13.1698 29.454 12.6822 32.1709 14.2833C33.118 14.8418 34.2241 16.3906 34.6145 17.4651C35.1889 19.0434 35.1467 20.8432 34.6161 22.0871C33.7435 24.1338 31.9147 25.661 29.846 26.1281C28.9853 26.3227 28.0764 26.4106 27.2005 26.5611C25.3561 26.8733 23.5039 27.165 21.6444 27.4353C20.2992 27.6478 18.9613 27.8828 17.6324 28.1402Z" fill="black"/>
<path d="M51.4101 27.8947C50.4234 27.8947 49.4596 27.7657 48.5184 27.5077C47.5773 27.2496 46.8259 26.9233 46.2643 26.5286L47.3572 24.3655C47.9037 24.7298 48.5564 25.0258 49.3153 25.2535C50.0895 25.466 50.8485 25.5723 51.5923 25.5723C53.2924 25.5723 54.1424 25.1245 54.1424 24.2289C54.1424 23.8039 53.9223 23.5079 53.4821 23.3409C53.0571 23.1739 52.3664 23.0146 51.4101 22.8628C50.4083 22.711 49.5886 22.5364 48.951 22.3391C48.3287 22.1417 47.7822 21.8002 47.3117 21.3145C46.8563 20.8135 46.6286 20.1229 46.6286 19.2425C46.6286 18.0888 47.1067 17.1705 48.063 16.4874C49.0345 15.7891 50.34 15.44 51.9793 15.44C52.8142 15.44 53.6491 15.5387 54.4839 15.736C55.3188 15.9182 56.0019 16.1686 56.5332 16.4874L55.4402 18.6505C54.408 18.0433 53.2468 17.7397 51.9566 17.7397C51.1217 17.7397 50.4842 17.8687 50.044 18.1268C49.6189 18.3696 49.4064 18.696 49.4064 19.1058C49.4064 19.5612 49.6341 19.8876 50.0895 20.0849C50.5601 20.2671 51.2811 20.4416 52.2526 20.6086C53.2241 20.7604 54.021 20.935 54.6433 21.1323C55.2657 21.3296 55.797 21.6636 56.2372 22.1341C56.6925 22.6047 56.9202 23.2726 56.9202 24.1378C56.9202 25.2763 56.4269 26.1871 55.4402 26.8701C54.4536 27.5532 53.1102 27.8947 51.4101 27.8947ZM65.1547 25.4812C66.4753 25.4812 67.5758 25.041 68.4562 24.1606L69.959 25.9138C69.4277 26.5665 68.7446 27.0599 67.9097 27.3938C67.0749 27.7278 66.1337 27.8947 65.0864 27.8947C63.7506 27.8947 62.5742 27.6291 61.5571 27.0978C60.5401 26.5665 59.7508 25.8303 59.1891 24.8892C58.6427 23.9329 58.3695 22.8552 58.3695 21.656C58.3695 20.472 58.6351 19.4094 59.1664 18.4683C59.7128 17.512 60.4566 16.7682 61.3978 16.2369C62.3541 15.7057 63.4318 15.44 64.631 15.44C65.7694 15.44 66.8016 15.6905 67.7276 16.1914C68.6687 16.6771 69.4125 17.383 69.959 18.3089C70.5054 19.2197 70.7786 20.2898 70.7786 21.5194L61.4661 23.3409C61.7545 24.0392 62.2174 24.5704 62.855 24.9347C63.4925 25.2991 64.2591 25.4812 65.1547 25.4812ZM64.631 17.7169C63.5836 17.7169 62.7335 18.0585 62.0808 18.7415C61.4433 19.4246 61.1245 20.343 61.1245 21.4966V21.5194L68.0008 20.1988C67.8035 19.455 67.4012 18.8554 66.794 18.4C66.202 17.9446 65.481 17.7169 64.631 17.7169ZM80.4121 15.44C81.9452 15.44 83.1748 15.8878 84.1007 16.7834C85.0267 17.679 85.4896 19.0072 85.4896 20.768V27.7354H82.6435V21.1323C82.6435 20.0697 82.393 19.2728 81.8921 18.7415C81.3912 18.1951 80.6778 17.9219 79.7518 17.9219C78.7044 17.9219 77.8772 18.2406 77.27 18.8782C76.6628 19.5005 76.3592 20.4037 76.3592 21.5877V27.7354H73.5131V10.8407H76.3592V16.9883C76.8298 16.4874 77.4066 16.1079 78.0897 15.8499C78.7879 15.5766 79.5621 15.44 80.4121 15.44ZM101.097 15.5766V27.7354H98.3873V26.1643C97.9167 26.7411 97.3323 27.1737 96.6341 27.4621C95.951 27.7505 95.192 27.8947 94.3571 27.8947C93.1731 27.8947 92.1106 27.6367 91.1695 27.1206C90.2435 26.6045 89.5149 25.8759 88.9836 24.9347C88.4675 23.9936 88.2095 22.9007 88.2095 21.656C88.2095 20.4113 88.4675 19.326 88.9836 18.4C89.5149 17.4589 90.2435 16.7303 91.1695 16.2142C92.1106 15.6981 93.1731 15.44 94.3571 15.44C95.1465 15.44 95.8675 15.5766 96.5202 15.8499C97.1881 16.1231 97.7649 16.5253 98.2507 17.0566V15.5766H101.097ZM94.6759 25.4584C95.7233 25.4584 96.5885 25.1093 97.2716 24.4111C97.9547 23.7128 98.2962 22.7944 98.2962 21.656C98.2962 20.5175 97.9547 19.5992 97.2716 18.9009C96.5885 18.2027 95.7233 17.8535 94.6759 17.8535C93.6285 17.8535 92.7633 18.2027 92.0802 18.9009C91.4123 19.5992 91.0784 20.5175 91.0784 21.656C91.0784 22.7944 91.4123 23.7128 92.0802 24.4111C92.7633 25.1093 93.6285 25.4584 94.6759 25.4584ZM111.651 27.075C111.317 27.3483 110.908 27.5532 110.422 27.6898C109.951 27.8264 109.45 27.8947 108.919 27.8947C107.583 27.8947 106.551 27.5456 105.822 26.8474C105.094 26.1491 104.73 25.1321 104.73 23.7963V12.8899H107.576V15.6677H110.832V17.9446H107.576V23.728C107.576 24.32 107.72 24.7754 108.008 25.0941C108.312 25.3977 108.729 25.5495 109.261 25.5495C109.898 25.5495 110.429 25.3825 110.854 25.0486L111.651 27.075ZM125.776 15.5766V25.8911C125.776 30.1716 123.673 32.3119 119.468 32.3119C118.36 32.3119 117.298 32.1602 116.281 31.8566C115.279 31.5682 114.452 31.1431 113.799 30.5815L115.074 28.4412C115.59 28.8814 116.22 29.2305 116.964 29.4886C117.708 29.7466 118.489 29.8757 119.309 29.8757C120.554 29.8757 121.465 29.5721 122.041 28.9649C122.633 28.3729 122.929 27.4545 122.929 26.2098V25.6406C122.474 26.1415 121.92 26.5286 121.267 26.8018C120.615 27.0599 119.909 27.1889 119.15 27.1889C117.526 27.1889 116.243 26.7411 115.302 25.8455C114.376 24.9499 113.913 23.6065 113.913 21.8154V15.5766H116.759V21.4511C116.759 22.5288 117.002 23.3409 117.488 23.8874C117.988 24.4186 118.694 24.6843 119.605 24.6843C120.622 24.6843 121.427 24.3731 122.019 23.7508C122.626 23.1284 122.929 22.2252 122.929 21.0412V15.5766H125.776ZM141.388 15.5766V27.7354H138.678V26.1643C138.207 26.7411 137.623 27.1737 136.925 27.4621C136.242 27.7505 135.483 27.8947 134.648 27.8947C133.464 27.8947 132.401 27.6367 131.46 27.1206C130.534 26.6045 129.806 25.8759 129.274 24.9347C128.758 23.9936 128.5 22.9007 128.5 21.656C128.5 20.4113 128.758 19.326 129.274 18.4C129.806 17.4589 130.534 16.7303 131.46 16.2142C132.401 15.6981 133.464 15.44 134.648 15.44C135.437 15.44 136.158 15.5766 136.811 15.8499C137.479 16.1231 138.056 16.5253 138.541 17.0566V15.5766H141.388ZM134.967 25.4584C136.014 25.4584 136.879 25.1093 137.562 24.4111C138.245 23.7128 138.587 22.7944 138.587 21.656C138.587 20.5175 138.245 19.5992 137.562 18.9009C136.879 18.2027 136.014 17.8535 134.967 17.8535C133.919 17.8535 133.054 18.2027 132.371 18.9009C131.703 19.5992 131.369 20.5175 131.369 21.656C131.369 22.7944 131.703 23.7128 132.371 24.4111C133.054 25.1093 133.919 25.4584 134.967 25.4584ZM147.821 17.3526C148.641 16.0776 150.083 15.44 152.147 15.44V18.1495C151.904 18.104 151.684 18.0812 151.487 18.0812C150.379 18.0812 149.513 18.4076 148.891 19.0603C148.269 19.6978 147.957 20.6238 147.957 21.8381V27.7354H145.111V15.5766H147.821V17.3526Z" fill="black"/>
</svg>
